<svg width="36" height="36" viewBox="0 0 36 36" fill="none" xmlns="http://www.w3.org/2000/svg">
<path d="M17.9048 10.6031C13.4604 10.6031 9.77783 14.2222 9.77783 18.7301C9.77783 23.2381 13.3969 26.8571 17.9048 26.8571C22.4128 26.8571 26.0318 23.1746 26.0318 18.7301C26.0318 14.2857 22.3493 10.6031 17.9048 10.6031ZM17.9048 23.9365C15.0477 23.9365 12.6985 21.5873 12.6985 18.7301C12.6985 15.873 15.0477 13.5238 17.9048 13.5238C20.762 13.5238 23.1112 15.873 23.1112 18.7301C23.1112 21.5873 20.762 23.9365 17.9048 23.9365Z" fill="white"/>
<path d="M26.3491 12.254C27.366 12.254 28.1904 11.4296 28.1904 10.4127C28.1904 9.39578 27.366 8.57141 26.3491 8.57141C25.3322 8.57141 24.5078 9.39578 24.5078 10.4127C24.5078 11.4296 25.3322 12.254 26.3491 12.254Z" fill="white"/>
<path d="M31.1111 5.65078C29.4603 3.9365 27.1111 3.04761 24.4444 3.04761H11.365C5.84123 3.04761 2.15869 6.73015 2.15869 12.254V25.2698C2.15869 28 3.04758 30.3492 4.82536 32.0635C6.53964 33.7143 8.82536 34.5397 11.4285 34.5397H24.3809C27.1111 34.5397 29.3968 33.6508 31.0476 32.0635C32.7619 30.4127 33.6508 28.0635 33.6508 25.3333V12.254C33.6508 9.58729 32.7619 7.30158 31.1111 5.65078ZM30.8571 25.3333C30.8571 27.3016 30.1587 28.8889 29.0158 29.9682C27.873 31.0476 26.2857 31.619 24.3809 31.619H11.4285C9.52377 31.619 7.93647 31.0476 6.79361 29.9682C5.65075 28.8254 5.07933 27.2381 5.07933 25.2698V12.254C5.07933 10.3492 5.65075 8.76189 6.79361 7.61904C7.87298 6.53967 9.52377 5.96824 11.4285 5.96824H24.5079C26.4127 5.96824 28 6.53967 29.1428 7.68253C30.2222 8.82539 30.8571 10.4127 30.8571 12.254V25.3333Z" fill="white"/>
</svg>
