<svg width="40" height="40" viewBox="0 0 40 40" fill="none" xmlns="http://www.w3.org/2000/svg">
<g clip-path="url(#clip0_21_140)">
<path d="M20.0002 39.1667C9.50016 39.1667 0.833496 30.5 0.833496 20C0.833496 9.49999 9.50016 0.833328 20.0002 0.833328C30.5002 0.833328 39.1668 9.49999 39.1668 20C39.1668 30.5 30.5002 39.1667 20.0002 39.1667ZM20.0002 2.49999C10.3335 2.49999 2.50016 10.3333 2.50016 20C2.50016 29.6667 10.3335 37.5 20.0002 37.5C29.6668 37.5 37.5002 29.6667 37.5002 20C37.5002 10.3333 29.6668 2.49999 20.0002 2.49999Z" fill="white"/>
<path d="M27.6669 27.6667C27.5002 27.6667 27.3336 27.6667 27.1669 27.5C23.1669 25 17.8336 24.5 11.6669 25.8333C11.1669 26 10.8336 25.6667 10.6669 25.1667C10.5002 24.6667 10.8336 24.3333 11.3336 24.1667C18.0002 22.6667 23.6669 23.3333 28.1669 26C28.5002 26.1667 28.6669 26.8333 28.5002 27.1667C28.1669 27.5 27.8336 27.6667 27.6669 27.6667Z" fill="white"/>
<path d="M29.5004 22.6667C29.3337 22.6667 29.1671 22.6667 29.0004 22.5C24.1671 19.5 17.0004 18.6667 11.5004 20.5C11.0004 20.6667 10.6671 20.3333 10.5004 20C10.3337 19.6667 10.6671 19.1667 11.0004 19C17.0004 17.1667 24.6671 18 30.0004 21.1667C30.3337 21.3333 30.5004 22 30.3337 22.3333C30.0004 22.5 29.6671 22.6667 29.5004 22.6667Z" fill="white"/>
<g filter="url(#filter0_d_21_140)">
<path d="M31.4999 17.1666C31.3332 17.1666 31.1666 17.1666 30.9999 17C25.4999 13.6666 15.9999 13.3333 10.4999 15C10.1666 15.1666 9.66656 14.8333 9.4999 14.5C9.33323 14 9.66656 13.5 9.9999 13.3333C15.8332 11.6666 25.8332 12 31.9999 15.5C32.3332 15.6666 32.4999 16.1666 32.3332 16.6666C32.1666 17 31.8332 17.1666 31.4999 17.1666Z" fill="white"/>
</g>
</g>
<defs>
<filter id="filter0_d_21_140" x="5.45557" y="12.3636" width="30.9429" height="12.8031" filterUnits="userSpaceOnUse" color-interpolation-filters="sRGB">
<feFlood flood-opacity="0" result="BackgroundImageFix"/>
<feColorMatrix in="SourceAlpha" type="matrix" values="0 0 0 0 0 0 0 0 0 0 0 0 0 0 0 0 0 0 127 0" result="hardAlpha"/>
<feOffset dy="4"/>
<feGaussianBlur stdDeviation="2"/>
<feComposite in2="hardAlpha" operator="out"/>
<feColorMatrix type="matrix" values="0 0 0 0 0 0 0 0 0 0 0 0 0 0 0 0 0 0 0.25 0"/>
<feBlend mode="normal" in2="BackgroundImageFix" result="effect1_dropShadow_21_140"/>
<feBlend mode="normal" in="SourceGraphic" in2="effect1_dropShadow_21_140" result="shape"/>
</filter>
<clipPath id="clip0_21_140">
<rect width="40" height="40" fill="white"/>
</clipPath>
</defs>
</svg>
