<svg width="36" height="36" viewBox="0 0 36 36" fill="none" xmlns="http://www.w3.org/2000/svg">
<path d="M33.5515 9.56627C32.4015 10.0774 31.1639 10.4222 29.8653 10.5766C31.1912 9.7828 32.2078 8.5255 32.6873 7.02564C31.4471 7.7616 30.0742 8.29563 28.6118 8.58392C27.4415 7.33679 25.7734 6.55701 23.9274 6.55701C20.3835 6.55701 17.5101 9.43038 17.5101 12.9749C17.5101 13.4772 17.5667 13.9668 17.6765 14.4373C12.3425 14.1694 7.61305 11.6148 4.44758 7.73175C3.89513 8.67917 3.5789 9.78153 3.5789 10.9588C3.5789 13.1851 4.71174 15.1498 6.43386 16.3004C5.3823 16.2668 4.39233 15.9779 3.52683 15.4972C3.52619 15.5238 3.52619 15.5511 3.52619 15.5784C3.52619 18.6874 5.73853 21.2807 8.67477 21.8713C8.13629 22.0173 7.56923 22.0961 6.98376 22.0961C6.56975 22.0961 6.16779 22.0561 5.776 21.9805C6.59324 24.53 8.96306 26.3861 11.771 26.4376C9.57456 28.159 6.80787 29.1852 3.80051 29.1852C3.28299 29.1852 2.77182 29.1547 2.26953 29.095C5.11052 30.9168 8.48363 31.9786 12.1076 31.9786C23.9128 31.9786 30.3676 22.1996 30.3676 13.7185C30.3676 13.4404 30.3619 13.1629 30.3498 12.8873C31.6033 11.9843 32.6917 10.8534 33.5515 9.56627Z" fill="white"/>
</svg>
