<svg width="40" height="40" viewBox="0 0 40 40" fill="none" xmlns="http://www.w3.org/2000/svg">
<path d="M25.175 37.5H14.825C5.03375 37.5 2.5 34.9662 2.5 25.175V14.825C2.5 5.03375 5.03375 2.5 14.825 2.5H25.1737C34.9663 2.5 37.5 5.03375 37.5 14.825V25.175C37.5 34.9662 34.9662 37.5 25.175 37.5ZM14.825 3.75C5.71625 3.75 3.75 5.71625 3.75 14.825V25.175C3.75 34.2837 5.71625 36.25 14.825 36.25H25.1737C34.2825 36.25 36.2488 34.2837 36.2488 25.175V14.825C36.25 5.71625 34.2837 3.75 25.175 3.75H14.825Z" fill="white"/>
<path d="M31.5235 28.595H28.7885C27.776 28.595 27.2685 28.0287 26.4247 27.0912C26.0922 26.7225 25.6847 26.2687 25.1435 25.7262C23.651 24.2875 23.0185 24.1425 22.786 24.1425C22.7772 24.2037 22.7697 24.3012 22.7697 24.4537V26.9062C22.7697 28.3075 21.7397 28.595 20.191 28.595C16.946 28.595 13.636 26.6237 11.336 23.3225C8.02348 18.6787 6.90723 14.9037 6.90723 13.895C6.90723 13.0062 7.47723 12.4962 8.46973 12.4962H11.2047C12.4047 12.4962 12.771 13.2625 13.0197 13.98C14.251 17.5687 16.066 20.2425 16.821 20.7762C16.8272 20.695 16.8322 20.5875 16.8322 20.4425V16.415C16.781 15.5037 16.4785 15.1287 16.211 14.7987C15.9922 14.5287 15.7447 14.2225 15.7447 13.75C15.7447 13.1475 16.2497 12.4962 17.066 12.4962H21.3635C22.006 12.4962 22.7697 12.7787 22.7697 14.1262V19.545C22.7697 19.57 22.771 19.5925 22.7722 19.6137C22.9135 19.5162 23.1147 19.3325 23.4035 19.045C25.2522 16.9762 26.6147 13.69 26.6285 13.6562C26.9547 12.8937 27.5647 12.495 28.3972 12.495H31.1322C31.7235 12.495 32.1547 12.6725 32.4135 13.02C32.586 13.2512 32.751 13.6625 32.5585 14.305C32.206 15.9287 29.1372 20.2837 28.7872 20.775C28.761 20.8187 28.6547 20.9912 28.641 21.05C28.6447 21.05 28.6672 21.1112 28.771 21.2462C28.8972 21.42 29.2085 21.725 29.5097 22.0212C29.8822 22.3862 30.3035 22.8 30.6385 23.1962C32.1135 24.855 32.8172 25.8487 33.0635 26.6137C33.2685 27.3212 33.0872 27.7662 32.8972 28.0175C32.7035 28.2825 32.306 28.595 31.5235 28.595ZM22.861 22.8912C23.426 22.8912 24.2435 23.1225 26.0185 24.8337C26.5885 25.4037 27.011 25.8725 27.3547 26.255C28.1722 27.1662 28.371 27.345 28.7872 27.345H31.5222C31.781 27.345 31.886 27.2862 31.8997 27.27C31.8997 27.27 31.931 27.1937 31.8697 26.9825C31.6397 26.2675 30.5872 25.0212 29.696 24.0175C29.3747 23.6375 28.9835 23.255 28.636 22.9162C28.2497 22.5387 27.946 22.24 27.7722 21.9975C27.1497 21.1962 27.3935 20.6575 27.7497 20.085C28.676 18.7775 31.086 15.1987 31.3497 13.995C31.386 13.8675 31.3947 13.7975 31.3947 13.7637C31.3722 13.7662 31.2885 13.7475 31.1322 13.7475H28.3972C28.0235 13.7475 27.8885 13.8925 27.7822 14.1412C27.7272 14.275 26.3297 17.6487 24.3122 19.905C23.6697 20.5487 23.216 20.9537 22.571 20.9537C22.0647 20.9537 21.5197 20.5125 21.5197 19.5462V14.1275C21.5197 13.8875 21.491 13.7862 21.4772 13.7512C21.4635 13.7562 21.4297 13.7487 21.3635 13.7475H17.066C17.0047 13.795 17.1122 13.9275 17.1835 14.015C17.5122 14.4212 18.0072 15.035 18.0822 16.3825L18.0835 20.445C18.0835 20.9437 18.0835 22.1137 16.951 22.1137C15.3472 22.1137 12.9522 17.6275 11.8397 14.39C11.6172 13.7487 11.5135 13.7487 11.206 13.7487H8.47098C8.22598 13.7487 8.15473 13.7962 8.15348 13.7962C8.15848 14.335 8.93348 17.8012 12.3585 22.6037C14.4285 25.575 17.3547 27.3462 20.1922 27.3462C21.521 27.3462 21.521 27.1625 21.521 26.9075V24.455C21.521 23.6812 21.6797 22.8912 22.861 22.8912Z" fill="white"/>
</svg>
