<svg width="40" height="40" viewBox="0 0 40 40" fill="none" xmlns="http://www.w3.org/2000/svg">
<g clip-path="url(#clip0_21_135)">
<path fill-rule="evenodd" clip-rule="evenodd" d="M6.2749 29.8637V10.1413C6.2749 7.97266 8.11649 6.24577 10.3131 6.24577H25.3524C25.9091 6.24911 26.4257 6.22744 26.809 6.41079L26.8607 6.43913L27.0007 6.52581C27.3574 6.78751 27.6073 7.31591 27.9157 7.8293L34.5087 18.6323L34.7087 18.9324C35.177 19.7675 35.0037 20.5692 34.5387 21.306L27.434 32.6591C26.7757 33.7959 26.2324 33.7592 25.3324 33.7592H10.3131C8.11649 33.7592 6.2749 32.034 6.2749 29.8637ZM26.0257 32.4707C26.0441 32.4624 26.1224 32.429 26.3624 32.014L33.4804 20.6409C33.8121 20.1175 33.8304 19.7858 33.4838 19.3407L33.4421 19.2824L26.8474 8.47772C26.4991 7.89931 26.3924 7.69262 26.3257 7.60094L26.2607 7.5376L26.2041 7.52093C26.1124 7.5076 25.9074 7.50093 25.3474 7.49593H10.3131C8.7548 7.49593 7.52485 8.71442 7.52485 10.1413V29.8637C7.52485 31.2922 8.7548 32.5091 10.3131 32.5091H25.3324C25.8541 32.5091 25.9607 32.4991 26.0257 32.4707Z" fill="white"/>
<path fill-rule="evenodd" clip-rule="evenodd" d="M0 36.3462V3.65379C0 1.63854 1.6366 0 3.65318 0H36.3468C38.3617 0 40 1.63854 40 3.65379V36.3462C40 38.3631 38.3617 40 36.3468 40H3.65318C1.6366 40 0 38.3631 0 36.3462ZM38.7501 36.3462V3.65379C38.7501 2.33029 37.6701 1.25016 36.3468 1.25016H3.65318C2.32824 1.25016 1.24995 2.33029 1.24995 3.65379V36.3462C1.24995 37.6714 2.32824 38.7498 3.65318 38.7498H36.3468C37.6701 38.7498 38.7501 37.6714 38.7501 36.3462Z" fill="white"/>
<path fill-rule="evenodd" clip-rule="evenodd" d="M13.7495 28.7536L17.0994 22.0544C15.1261 21.1743 13.7495 19.1874 13.7495 16.8754C13.7495 13.9651 15.9394 11.5664 18.7493 11.2514L22.5008 11.2531V12.5016H22.4975V21.2527H22.5008V22.5011H22.4975V28.7536H21.2492V22.5011L18.7493 22.5028C18.5526 22.4811 18.361 22.4495 18.171 22.4078L14.9978 28.7536H13.7495ZM21.2492 21.2527V12.5016H18.7493C16.6311 12.8083 14.9995 14.6602 14.9995 16.8754C14.9995 19.0957 16.6294 20.946 18.7493 21.2527H21.2492Z" fill="white"/>
</g>
<defs>
<clipPath id="clip0_21_135">
<rect width="40" height="40" fill="white"/>
</clipPath>
</defs>
</svg>
