<svg width="36" height="36" viewBox="0 0 36 36" fill="none" xmlns="http://www.w3.org/2000/svg">
<g clip-path="url(#clip0_22_2)">
<path d="M35.7609 10.4625C35.7609 7.29844 33.4335 4.75312 30.5578 4.75312C26.6625 4.57031 22.6898 4.5 18.6328 4.5C18.4218 4.5 18.2109 4.5 18 4.5C17.789 4.5 17.5781 4.5 17.3671 4.5C13.3171 4.5 9.33745 4.57031 5.44214 4.75312C2.57339 4.75312 0.246044 7.3125 0.246044 10.4766C0.0702632 12.9797 -0.00708059 15.4828 -4.93354e-05 17.9859C-0.00708059 20.4891 0.0702632 22.9922 0.239013 25.5023C0.239013 28.6664 2.56636 31.2328 5.43511 31.2328C9.52729 31.4227 13.7249 31.507 17.9929 31.5C22.2679 31.5141 26.4515 31.4297 30.5507 31.2328C33.4265 31.2328 35.7539 28.6664 35.7539 25.5023C35.9226 22.9922 36 20.4891 35.9929 17.9789C36.007 15.4758 35.9296 12.9727 35.7609 10.4625ZM14.5546 24.8836V11.0672L24.75 17.9719L14.5546 24.8836Z" fill="white"/>
</g>
<defs>
<clipPath id="clip0_22_2">
<rect width="36" height="36" fill="white"/>
</clipPath>
</defs>
</svg>
